<svg width="63" height="100" viewBox="0 0 63 100" fill="none" xmlns="http://www.w3.org/2000/svg">
<path d="M20.8854 75.48C20.8855 73.1069 41.2911 73.1069 41.2911 75.48C41.2911 83.7212 34.6824 87.384 31.0883 87.384C27.4941 87.384 20.8854 83.9501 20.8854 75.48Z" fill="#819D92"/>
<path d="M40.7644 74.6613C40.7646 74.661 40.765 74.6607 40.7653 74.6604L40.7374 74.7964L40.7283 74.8428C40.7283 74.8428 40.728 74.8429 40.7278 74.8433L40.6427 75.2606C40.6356 75.2739 37.7109 80.7101 31.0426 80.5662C30.5754 80.5561 30.1272 80.5201 29.6972 80.464C29.6853 80.4625 29.6734 80.4608 29.6615 80.4593C29.6046 80.4517 29.548 80.4439 29.4918 80.4356C28.8581 80.3441 28.2641 80.2034 27.7089 80.0258C27.6889 80.0195 27.669 80.013 27.6491 80.0066C27.6076 79.993 27.5662 79.9795 27.5251 79.9655C23.6094 78.6514 21.7555 75.6175 21.5424 75.2493C21.5295 75.2277 21.5228 75.2163 21.5225 75.2158L21.5218 75.2132C21.5215 75.2128 21.5215 75.2125 21.5215 75.2125L21.499 75.0979L21.4482 74.8433C21.448 74.843 21.4479 74.8428 21.4479 74.8428L20.6452 70.8193H41.531L40.7644 74.6613Z" fill="#255752"/>
<path d="M20.6452 70.8193H41.531L40.7283 74.8429C40.7283 74.8429 37.6899 80.1819 31.0881 80.1819C24.4863 80.1819 21.4479 74.8429 21.4479 74.8429L20.6452 70.8193Z" fill="#012A2D"/>
<path d="M21.0051 72.6199C23.9105 77.4692 37.6347 78.0454 41.1707 72.6199L40.6426 75.2606C40.6426 75.2606 37.7644 80.5548 31.1626 80.5548C24.5607 80.5548 21.5224 75.2158 21.5224 75.2158L21.0051 72.6199Z" fill="#01363A"/>
<path d="M21.4133 74.6604C27.0549 81.0222 35.0491 81.3823 40.7651 74.6604L40.6427 75.2606C40.6427 75.2606 37.719 80.7102 31.0426 80.5661C24.3661 80.422 21.5214 75.2126 21.5214 75.2126L21.4133 74.6604Z" fill="#084F54"/>
<path d="M12.0005 52.5565L18.0042 55.4547L12.0922 67.7018L6.0885 64.8037L12.0005 52.5565Z" fill="#01363A"/>
<path d="M12.0005 52.5565L18.0042 55.4547L16.0143 58.9355C13.6136 60.496 9.77258 61.2162 8.30787 60.2061L12.0005 52.5565Z" fill="#012A2D"/>
<path d="M5.88088 65.0572L6.90587 63.1086C8.5949 63.624 10.5548 65.4999 12.9188 64.4398C13.2062 64.3109 13.4457 64.3388 13.6385 64.4957L12.6027 66.6176L5.88088 65.0572Z" fill="#084F54"/>
<path d="M5.22092 63.9759C7.26831 62.665 9.72465 66.593 12.9189 65.1605C16.1132 63.728 13.3821 81.6675 6.59926 80.6237C-0.18355 79.58 3.17353 65.2868 5.22092 63.9759Z" fill="#819D92"/>
<path d="M3.32136 79.113C3.50858 77.4015 4.85327 76.0338 6.55432 75.768C9.56792 75.2972 11.1318 79.2362 8.61581 80.9606L8.35469 81.1395L7.63449 83.9003H3.43332C3.10439 82.0109 3.15401 80.6428 3.32136 79.113Z" fill="#01363A"/>
<path d="M3.48236 78.3813C3.84246 77.181 4.85336 76.0337 6.55441 75.7679C8.11366 75.5243 9.36399 76.4608 9.70353 77.6611C7.90158 75.8606 5.04279 76.1007 3.48236 78.3813Z" fill="#012A2D"/>
<ellipse cx="9.96996" cy="80.9241" rx="1.7413" ry="3.41079" transform="rotate(-15 9.96996 80.9241)" fill="#A9C1B8"/>
<path d="M6.32341 85.4369C7.80983 86.8172 8.01565 88.0906 7.27897 88.5159C6.54229 88.9412 4.82071 87.9416 3.98761 86.4986C3.1545 85.0557 3.20457 83.4472 3.94124 83.0218C4.67792 82.5965 6.32341 83.1011 6.32341 85.4369Z" fill="#A9C1B8"/>
<path d="M4.84124 82.9288L7.6478 88.036C7.64804 88.1522 7.47964 88.3561 7.47964 88.3561C4.74769 86.7255 4.07157 84.6022 4.84124 82.9288Z" fill="#8EADA1"/>
<path d="M8.11192 84.749C9.79238 86.3094 10.0251 87.7491 9.19222 88.23C8.35937 88.7108 6.41304 87.5807 5.47118 85.9493C4.52931 84.318 4.58591 82.4995 5.41876 82.0187C6.25161 81.5378 8.11192 82.1083 8.11192 84.749Z" fill="#A9C1B8"/>
<path d="M50.1061 52.5565L44.1024 55.4547L50.0144 67.7018L56.0181 64.8037L50.1061 52.5565Z" fill="#01363A"/>
<path d="M50.1061 52.5565L44.1024 55.4547L46.0923 58.9355C48.493 60.496 52.3341 61.2162 53.7988 60.2061L50.1061 52.5565Z" fill="#012A2D"/>
<path d="M56.2259 65.0572L55.2009 63.1086C53.5119 63.624 51.552 65.4999 49.188 64.4398C48.9006 64.3109 48.6611 64.3388 48.4683 64.4957L49.5041 66.6176L56.2259 65.0572Z" fill="#084F54"/>
<path d="M56.8861 63.9759C54.8387 62.665 52.3824 66.593 49.1881 65.1605C45.9939 63.728 48.725 81.6675 55.5078 80.6237C62.2906 79.58 58.9335 65.2868 56.8861 63.9759Z" fill="#819D92"/>
<path d="M58.7366 79.1129C58.5494 77.4014 57.2047 76.0337 55.5037 75.7679C52.4901 75.297 50.9262 79.236 53.4422 80.9604L53.7033 81.1394L54.4235 83.9002H58.6247C58.9536 82.0107 58.904 80.6427 58.7366 79.1129Z" fill="#01363A"/>
<path d="M58.5757 78.3813C58.2156 77.181 57.2047 76.0337 55.5037 75.7679C53.9444 75.5243 52.6941 76.4608 52.3546 77.6611C54.1565 75.8606 57.0153 76.1007 58.5757 78.3813Z" fill="#012A2D"/>
<ellipse cx="1.7413" cy="3.41079" rx="1.7413" ry="3.41079" transform="matrix(-0.965926 -0.258819 -0.258819 0.965926 54.6531 78.0802)" fill="#A9C1B8"/>
<path d="M55.7348 85.4369C54.2483 86.8172 54.0425 88.0906 54.7792 88.5159C55.5159 88.9412 57.2375 87.9416 58.0706 86.4986C58.9037 85.0557 58.8536 83.4472 58.1169 83.0218C57.3802 82.5965 55.7348 83.1011 55.7348 85.4369Z" fill="#A9C1B8"/>
<path d="M57.2169 82.9288L54.4104 88.036C54.4101 88.1522 54.5785 88.3561 54.5785 88.3561C57.3105 86.7255 57.9866 84.6022 57.2169 82.9288Z" fill="#8EADA1"/>
<path d="M53.9462 84.7493C52.2657 86.3097 52.033 87.7494 52.8659 88.2302C53.6987 88.7111 55.6451 87.5809 56.5869 85.9496C57.5288 84.3182 57.4722 82.4998 56.6393 82.0189C55.8065 81.5381 53.9462 82.1085 53.9462 84.7493Z" fill="#A9C1B8"/>
<path d="M16.8778 47.2929L21.9475 45.6542C22.5197 45.4692 23.0365 45.1439 23.4506 44.7079L23.9598 44.172H31.0417H38.0132L38.6664 44.7988C39.0597 45.1762 39.5335 45.4594 40.0522 45.6271L45.2057 47.2929C45.2057 47.2929 52.7678 75.3806 31.0417 75.3806C9.31575 75.3806 16.8778 47.2929 16.8778 47.2929Z" fill="#A9C1B8"/>
<path d="M24.7262 41.7712H37.2097L38.41 45.3722C38.41 45.3722 38.41 48.9732 30.9679 48.9732C23.5259 48.9732 23.5259 45.3722 23.5259 45.3722L24.7262 41.7712Z" fill="#01363A"/>
<path d="M23.6459 45.0122C23.6459 45.0122 24.7262 48.1331 30.9679 48.1331C37.3297 48.013 38.29 45.0122 38.29 45.0122L38.41 45.3723C38.41 45.3723 38.41 48.9733 30.9679 48.9733C23.5259 48.9733 23.5259 45.3723 23.5259 45.3723L23.6459 45.0122Z" fill="#084F54"/>
<path d="M24.7262 41.7712H37.2096L38.0091 44.1719C34.929 45.3722 27.3669 45.2522 23.9268 44.1719L24.7262 41.7712Z" fill="#012A2D"/>
<path d="M41.5888 47.2276C35.5533 53.2631 50.8985 62.142 53.7009 59.3396C56.5032 56.5372 47.6244 41.1921 41.5888 47.2276Z" fill="#819D92"/>
<path d="M20.5878 47.2276C26.6233 53.2631 11.2781 62.142 8.47572 59.3396C5.67333 56.5372 14.5522 41.1921 20.5878 47.2276Z" fill="#819D92"/>
<path d="M60.9766 23.7666C60.9766 19.789 57.7522 16.5646 53.7746 16.5646V33.1292C57.7522 33.1292 60.9766 29.9047 60.9766 25.9272V23.7666Z" fill="#01363A"/>
<path d="M1.20007 23.7666C1.20007 19.789 4.42452 16.5646 8.40207 16.5646V33.1292C4.42452 33.1292 1.20007 29.9047 1.20007 25.9272V23.7666Z" fill="#01363A"/>
<path d="M56.1752 21.9661C56.1752 39.6579 44.9434 43.9322 31.0882 43.9322C17.2331 43.9322 6.00128 39.6579 6.00128 21.9661C6.00128 9.0237 14.8324 0 31.0882 0C44.9434 0 56.1752 6.64898 56.1752 21.9661Z" fill="#819D92"/>
<path d="M31.2382 11.0548C48.9162 11.0549 51.532 15.3644 51.5321 25.2921C51.5321 25.4035 51.5297 25.5144 51.5282 25.6241C51.4405 16.5703 48.6267 12.632 31.2382 12.632C13.6679 12.632 11.029 17.9748 10.9462 25.6886C10.9443 25.5577 10.9432 25.4253 10.9432 25.2921C10.9433 16.9035 13.3717 11.0548 31.2382 11.0548Z" fill="#92ADA3"/>
<path d="M31.2383 39.4532C13.5599 39.4532 10.9434 35.1437 10.9434 25.2159C10.9434 25.089 10.9463 24.9628 10.9482 24.838C11.0267 33.9251 13.8198 37.877 31.2383 37.8771C48.7684 37.8771 51.435 32.5586 51.5293 24.8732C51.5307 24.9864 51.5322 25.1009 51.5322 25.2159C51.5322 33.6045 49.1045 39.4532 31.2383 39.4532Z" fill="#6D8D81"/>
<path d="M51.5326 25.2719C51.5326 36.1046 43.6702 38.7217 31.2379 38.7217C17.9076 38.7217 10.9431 36.1046 10.9431 25.2719C10.9431 17.3473 13.371 11.8221 31.2379 11.8221C48.9167 11.8221 51.5326 15.8933 51.5326 25.2719Z" fill="#A9C1B8"/>
<path d="M50.3321 25.2728C50.3321 34.9448 42.9349 37.2815 31.2381 37.2815C18.6967 37.2815 12.1442 34.9448 12.1442 25.2728C12.1442 18.1972 14.4285 13.264 31.2381 13.264C47.8709 13.264 50.3321 16.899 50.3321 25.2728Z" fill="#3A6164"/>
<path d="M50.3321 25.2728C50.3321 34.9448 42.9349 37.2815 31.2381 37.2815C18.6967 37.2815 12.1442 34.9448 12.1442 25.2728C12.1442 18.1972 14.4285 13.264 31.2381 13.264C47.8709 13.264 50.3321 16.899 50.3321 25.2728Z" fill="#01363A"/>
<path d="M31.238 13.264C47.8701 13.2641 50.3317 16.9034 50.3317 25.2865C50.3317 25.3872 50.3284 25.4872 50.3268 25.5863C50.2487 17.9272 47.6118 14.5951 31.238 14.5951C14.7079 14.5951 12.2252 19.1072 12.1472 25.6205C12.1454 25.5102 12.1442 25.3988 12.1442 25.2865C12.1442 18.203 14.4286 13.264 31.238 13.264Z" fill="#012A2D"/>
<path d="M31.2385 37.244C14.6063 37.244 12.1447 33.6046 12.1447 25.2216C12.1447 25.1208 12.148 25.0209 12.1496 24.9217C12.2277 32.5809 14.8646 35.9129 31.2385 35.913C47.7686 35.913 50.2513 31.4009 50.3293 24.8876C50.331 24.9979 50.3322 25.1093 50.3322 25.2216C50.3322 32.305 48.0478 37.244 31.2385 37.244Z" fill="#084F54"/>
<g filter="url(#filter0_f_178_93)">
<path d="M40.141 22.3711C42.6341 22.2871 44.1609 25.2784 43.96 27.3571C43.9364 27.6016 43.9279 27.8471 43.8847 28.0832C43.8824 28.0958 43.8781 28.1081 43.8714 28.1182C43.8647 28.1283 43.8558 28.1353 43.8459 28.1376C43.836 28.14 43.8255 28.1377 43.816 28.1316C43.8064 28.1254 43.7988 28.1156 43.792 28.1054C43.6708 27.9238 43.5398 27.746 43.4107 27.5776C42.2067 26.0078 41.1112 25.4407 40.1277 25.4827C40.1211 25.4829 40.1145 25.483 40.1079 25.4827C39.1206 25.4341 38.0319 25.9922 36.8401 27.5734C36.7123 27.743 36.5828 27.922 36.4632 28.105C36.4565 28.1152 36.4489 28.1251 36.4395 28.1313C36.43 28.1376 36.4196 28.14 36.4096 28.1378C36.3997 28.1355 36.3908 28.1286 36.384 28.1185C36.3772 28.1085 36.3729 28.0962 36.3705 28.0836C36.326 27.8479 36.3016 27.6041 36.2913 27.3584C36.2454 26.2654 36.464 25.1019 37.1149 24.0742C37.7627 23.0515 38.9729 22.3476 40.1 22.3711C40.1136 22.3714 40.1273 22.3716 40.141 22.3711Z" fill="#90D2CC"/>
<path d="M22.3537 22.3711C24.8468 22.2871 26.3736 25.2784 26.1727 27.3571C26.1491 27.6016 26.1406 27.8471 26.0974 28.0832C26.0951 28.0958 26.0908 28.1081 26.0841 28.1182C26.0774 28.1283 26.0685 28.1353 26.0586 28.1376C26.0487 28.14 26.0382 28.1377 26.0287 28.1316C26.0191 28.1254 26.0115 28.1156 26.0047 28.1054C25.8835 27.9238 25.7525 27.746 25.6234 27.5776C24.4194 26.0078 23.3239 25.4407 22.3404 25.4827C22.3338 25.4829 22.3272 25.483 22.3206 25.4827C21.3333 25.4341 20.2446 25.9922 19.0529 27.5734C18.925 27.743 18.7955 27.922 18.6759 28.105C18.6692 28.1152 18.6617 28.1251 18.6522 28.1313C18.6427 28.1376 18.6323 28.14 18.6223 28.1378C18.6124 28.1355 18.6035 28.1286 18.5967 28.1185C18.5899 28.1085 18.5856 28.0962 18.5832 28.0836C18.5387 27.8479 18.5143 27.6041 18.504 27.3584C18.4581 26.2654 18.6767 25.1019 19.3276 24.0742C19.9754 23.0515 21.1856 22.3476 22.3127 22.3711C22.3264 22.3714 22.34 22.3716 22.3537 22.3711Z" fill="#90D2CC"/>
</g>
<path d="M40.141 22.3711C42.6341 22.2871 44.1609 25.2784 43.96 27.3571C43.9364 27.6016 43.9279 27.8471 43.8847 28.0832C43.8824 28.0958 43.8781 28.1081 43.8714 28.1182C43.8647 28.1283 43.8558 28.1353 43.8459 28.1376C43.836 28.14 43.8255 28.1377 43.816 28.1316C43.8064 28.1254 43.7988 28.1156 43.792 28.1054C43.6708 27.9238 43.5398 27.746 43.4107 27.5776C42.2067 26.0078 41.1112 25.4407 40.1277 25.4827C40.1211 25.4829 40.1145 25.483 40.1079 25.4827C39.1206 25.4341 38.0319 25.9922 36.8401 27.5734C36.7123 27.743 36.5828 27.922 36.4632 28.105C36.4565 28.1152 36.4489 28.1251 36.4395 28.1313C36.43 28.1376 36.4196 28.14 36.4096 28.1378C36.3997 28.1355 36.3908 28.1286 36.384 28.1185C36.3772 28.1085 36.3729 28.0962 36.3705 28.0836C36.326 27.8479 36.3016 27.6041 36.2913 27.3584C36.2454 26.2654 36.464 25.1019 37.1149 24.0742C37.7627 23.0515 38.9729 22.3476 40.1 22.3711C40.1136 22.3714 40.1273 22.3716 40.141 22.3711Z" fill="#F6F6F6"/>
<path d="M22.3537 22.3711C24.8468 22.2871 26.3736 25.2784 26.1727 27.3571C26.1491 27.6016 26.1406 27.8471 26.0974 28.0832C26.0951 28.0958 26.0908 28.1081 26.0841 28.1182C26.0774 28.1283 26.0685 28.1353 26.0586 28.1376C26.0487 28.14 26.0382 28.1377 26.0287 28.1316C26.0191 28.1254 26.0115 28.1156 26.0047 28.1054C25.8835 27.9238 25.7525 27.746 25.6234 27.5776C24.4194 26.0078 23.3239 25.4407 22.3404 25.4827C22.3338 25.4829 22.3272 25.483 22.3206 25.4827C21.3333 25.4341 20.2446 25.9922 19.0529 27.5734C18.925 27.743 18.7955 27.922 18.6759 28.105C18.6692 28.1152 18.6617 28.1251 18.6522 28.1313C18.6427 28.1376 18.6323 28.14 18.6223 28.1378C18.6124 28.1355 18.6035 28.1286 18.5967 28.1185C18.5899 28.1085 18.5856 28.0962 18.5832 28.0836C18.5387 27.8479 18.5143 27.6041 18.504 27.3584C18.4581 26.2654 18.6767 25.1019 19.3276 24.0742C19.9754 23.0515 21.1856 22.3476 22.3127 22.3711C22.3264 22.3714 22.34 22.3716 22.3537 22.3711Z" fill="#F6F6F6"/>
<ellipse cx="31.0886" cy="96.9995" rx="13.8035" ry="3.00075" fill="#EFC9F3"/>
<ellipse cx="31.0886" cy="96.9995" rx="13.8035" ry="3.00075" fill="#4F6162"/>
<defs>
<filter id="filter0_f_178_93" x="15.1327" y="19.004" width="32.2103" height="12.4999" filterUnits="userSpaceOnUse" color-interpolation-filters="sRGB">
<feFlood flood-opacity="0" result="BackgroundImageFix"/>
<feBlend mode="normal" in="SourceGraphic" in2="BackgroundImageFix" result="shape"/>
<feGaussianBlur stdDeviation="1.68269" result="effect1_foregroundBlur_178_93"/>
</filter>
</defs>
</svg>
